Coordinates
version=1
nRows=21
nColumns=12
inDegrees=yes

Units are S.I. units (second, meters, Newtons, ...)
Angles are in degrees

endheader
time	SC_y	SC_z	SC_x	AC_y	AC_z	AC_x	GH_y	GH_z	GH_yy	EL_x	PS_y
       0.0               -29.5           33.5          82.13          68.54         -18.71         -14.14         -173.4          73.09         -116.9          88.12          69.21
   0.02589               -29.5           33.5          82.12          68.54         -18.71         -14.14         -173.4          73.08         -116.9          88.12          69.21
   0.05177              -29.51           33.5          82.11          68.54         -18.71         -14.13         -173.3          73.07         -116.9          88.13          69.21
   0.07766              -29.51           33.5           82.1          68.54         -18.71         -14.13         -173.3          73.05         -116.9          88.13          69.22
    0.1035              -29.52           33.5          82.09          68.54         -18.71         -14.13         -173.2          73.04         -116.9          88.14          69.22
    0.1294              -29.52           33.5          82.08          68.54         -18.71         -14.12         -173.2          73.02         -116.9          88.15          69.22
    0.1553              -29.53           33.5          82.07          68.54         -18.71         -14.12         -173.1           73.0         -116.8          88.15          69.22
    0.1812              -29.53          33.49          82.06          68.54         -18.71         -14.11         -173.0          72.99         -116.8          88.16          69.22
    0.2071              -29.54          33.49          82.05          68.54         -18.71         -14.11         -173.0          72.97         -116.8          88.17          69.22
     0.233              -29.55          33.49          82.03          68.54         -18.71          -14.1         -172.9          72.95         -116.8          88.18          69.22
    0.2589              -29.56          33.49          82.02          68.54         -18.71          -14.1         -172.8          72.92         -116.8          88.19          69.22
    0.2848              -29.56          33.49           82.0          68.54         -18.71         -14.09         -172.7           72.9         -116.7           88.2          69.23
    0.3106              -29.57          33.49          81.98          68.54         -18.71         -14.09         -172.6          72.87         -116.7          88.21          69.23
    0.3365              -29.58          33.48          81.96          68.54         -18.71         -14.08         -172.5          72.84         -116.7          88.22          69.23
    0.3624              -29.59          33.48          81.94          68.54         -18.71         -14.07         -172.4          72.81         -116.7          88.24          69.23
    0.3883              -29.61          33.48          81.92          68.54         -18.71         -14.06         -172.3          72.78         -116.6          88.25          69.23
    0.4142              -29.62          33.48           81.9          68.55         -18.71         -14.06         -172.2          72.74         -116.6          88.27          69.23
    0.4401              -29.63          33.47          81.87          68.55         -18.71         -14.05         -172.1           72.7         -116.6          88.29          69.24
     0.466              -29.65          33.47          81.84          68.55          -18.7         -14.04         -171.9          72.66         -116.5           88.3          69.24
    0.4919              -29.66          33.47          81.81          68.55          -18.7         -14.03         -171.8          72.61         -116.5          88.32          69.24
    0.5177              -29.68          33.46          81.78          68.55          -18.7         -14.01         -171.6          72.56         -116.4          88.35          69.25
